#!OML:ASF F:\VICON\USERDATA\INSTALL\rory3\rory3.ASF
:FULLY-SPECIFIED
:DEGREES
1
root 0.05578406867269492 17.59420588233042 -32.06218217083524 5.438582100846284 -6.202549728237724 -0.971175515896811
lfemur -1.6526679100237054 0.024611952512621604 -23.642394270870724
ltibia 81.15418987951091
lfoot 33.63988168916055 -19.385086570955156
ltoes 2.089994998788896
rfemur -35.012490672397526 5.483084276879582 28.488000966536973
rtibia 41.546605755261474
rfoot -8.268641197939328 -3.055325759335507
rtoes 9.64803634646275
lowerback 17.32398666854692 -0.9135804705875822 -0.8102950373003339
upperback -0.5970678519144319 -1.1077680134707801 2.610760205989026
thorax -10.344685527556468 -0.3996992421597855 3.6043550486073905
lowerneck -17.728205988293375 -1.9389127740658294 -2.8966635865684025
upperneck 10.053392282592734 -2.2065637191697554 2.0903884496562344
head 5.98287782729441 -1.0150421343606382 0.9105742942842465
lclavicle -1.5444325613006536e-15 -3.296202321605395e-15
lhumerus -41.45490518420264 -16.422679063449344 95.7117863863872
lradius 108.27000486808183
lwrist 29.817003761201686
lhand -21.871811512036263 3.876457823519287
lfingers 7.12502
lthumb 4.532568450751687 33.80799791878435
rclavicle -1.5444325613006536e-15 -3.296202321605395e-15
rhumerus -58.367592315203844 9.71266299797912 -93.94041089960226
rradius 98.30791166516639
rwrist -18.65801399874193
rhand -23.23557887034654 43.50278817487844
rfingers 7.12502
rthumb 3.2155611412825333 13.547288341157314
2
root 0.022617260259739758 17.43210861314772 -31.12738252219176 5.225403280690416 -5.9832201300086325 -2.310910805032873
lfemur -6.235044911294523 1.4038057024955952 -19.740000174587728
ltibia 89.0509886206568
lfoot 33.75768331542854 -17.794688241748005
ltoes -0.21514711492949878
rfemur -33.651991816674276 8.326857762807844 29.913598344717432
rtibia 46.16760465967388
rfoot -12.382488994464225 -7.806146449383058
rtoes 9.09028673537473
lowerback 17.968983538836675 -0.936406348324997 0.23596277695264978
upperback -0.39905240565246763 -0.8845260985521155 2.903607847273948
thorax -10.518383665770221 -0.3394729095795176 3.2861262855038125
lowerneck -18.091103746499297 -1.9412626630069272 -3.041269809201024
upperneck 10.496589906396412 -2.2289036715428874 2.4893656100841888
head 6.19120483188412 -0.9958692335715205 1.0568278467139756
lclavicle -1.5444324981200335e-15 -3.2962023775369867e-15
lhumerus -42.05810488985643 -14.413083435248048 95.56888699141919
lradius 103.99500972887543
lwrist 29.948003398879266
lhand -22.87290773898583 3.397559541199788
lfingers 7.12502
lthumb 3.5658822790303963 33.3474995762359
rclavicle -1.5444324981200335e-15 -3.2962023775369867e-15
rhumerus -54.23469566256352 11.45830034699932 -95.513006563917
rradius 97.37601351065668
rwrist -21.030205392532192
rhand -21.631586029968325 42.30779156209756
rfingers 7.12502
rthumb 4.7644840372420525 12.381291884505625
3
root -6.726779352206336e-06 17.27571126277926 -30.21818337734014 5.377172410822247 -4.897892435746964 -4.418551891753575
lfemur -11.922102446846568 2.333693984071728 -14.805807752836154
ltibia 96.15658456138783
lfoot 32.330482720250345 -18.53608762254867
ltoes 2.5407040616456715
rfemur -31.505992047489038 9.686134549491335 32.48999357985717
rtibia 48.929004222433484
rfoot -16.483986263875256 -11.303889619211372
rtoes 7.216448271046354
lowerback 18.090882801216814 -1.0708962705293272 2.371728205926231
upperback 0.13632466789163833 -0.5765483862815381 3.3809741004867657
thorax -10.027988911972312 -0.29582837744762425 2.4973898780801664
lowerneck -20.361689763778262 -2.3133504168570815 -3.214025321134814
upperneck 11.699183635919132 -2.733081214128498 3.074751606503817
head 6.977783558734116 -1.1730405940617934 1.2041343763786947
lclavicle -1.5444326117196017e-15 -3.2962022863441273e-15
lhumerus -41.89180488638388 -12.865087146451373 95.31108719312196
lradius 99.96021464877606
lwrist 30.009503180721623
lhand -23.13380668693093 3.760358232434835
lfingers 7.12502
lthumb 3.3138433441557646 33.71439825257002
rclavicle -1.5444326117196017e-15 -3.2962022863441273e-15
rhumerus -48.82830034649158 12.86139830185135 -96.40160410301519
rradius 97.13901351220926
rwrist -22.525099806418435
rhand -21.5075864894641 41.64409348313009
rfingers 7.12502
rthumb 4.884293420171134 11.720393787912137
4
root -0.024033136881376316 17.18261282464147 -29.303184030742422 5.576431218252532 -3.966954748874709 -4.84149004527759
lfemur -18.731898936568015 3.2880122806801677 -12.436811702799979
ltibia 101.67998272792073
lfoot 31.861582887310473 -17.49888945196126
ltoes 8.985559138415718
rfemur -28.825393871491677 10.104283871078193 33.41649181293664
rtibia 50.46160362543184
rfoot -19.28978370367629 -14.016484752776876
rtoes 2.1451921314219273
lowerback 18.515880789743836 -1.0601564634619036 2.530087721913747
upperback 0.10764906378589578 -0.4803558668341261 3.622432133526047
thorax -10.30288589745697 -0.2496119102552513 2.66122922853416
lowerneck -20.98368588395432 -2.4854593306055452 -3.054419487741332
upperneck 11.736783247002567 -2.9425202967604913 2.77887361655943
head 7.090691865974729 -1.288329530609346 1.0518879672529111
lclavicle -1.5444325514679047e-15 -3.296202320389488e-15
lhumerus -43.026104260622695 -10.828191606697926 95.36078728797332
lradius 97.00071825164214
lwrist 28.20390898125357
lhand -23.622204822449422 4.851574207225604
lfingers 7.12502
lthumb 2.842215202257659 34.8123942232809
rclavicle -1.5444325514679047e-15 -3.296202320389488e-15
rhumerus -43.927104351294005 14.67929562929496 -96.92490264797634
rradius 97.54271285792183
rwrist -23.799995137279698
rhand -21.405986949276226 41.11819502248705
rfingers 7.12502
rthumb 4.982382997250916 11.196795293479859
